# xmcd
# 
# Track frame offsets:
#     150
#     12060
#     26012
#     42790
#     60012
#     74060
#     89295
#     104620
#     123270
#     136400
#     153385
#     168372
#     184630
#     202700
# 
# Disc length: 2928
# 
# Revision: 1
# Processed by: cddbd v1.5.2PL0 Copyright (c) Steve Scherf et al.
# Submitted via: BonkEnc v1.0
# 
DISCID=ad0b6e0e
DTITLE=[Marcos and Fernando] - Ao Vivo
DYEAR=0
DGENRE=
TTITLE0=Socorro (Ao Vivo)
TTITLE1=É Armação (Ao Vivo)
TTITLE2=Bom-Dia (Ao Vivo)
TTITLE3=A Sogra (Ao Vivo)
TTITLE4=A Trepadeira Da Vizinha (Ao Vivo)
TTITLE5=Soltando As Feras (Ao Vivo)
TTITLE6=Catireiro Safado (Ao Vivo)
TTITLE7=Lembranças De Você (Ao Vivo)
TTITLE8=Amor De Cowboy (Ao Vivo)
TTITLE9=O Pau Vair Cair A Folha (Ao Vivo)
TTITLE10=Forró Mamado (Ao Vivo)
TTITLE11=Tô Indo Muito Bem (Ao Vivo)
TTITLE12=Chora Caboclinho (Ao Vivo)
TTITLE13=Tentação (Ao Vivo)
EXTD=
EXTT0=
EXTT1=
EXTT2=
EXTT3=
EXTT4=
EXTT5=
EXTT6=
EXTT7=
EXTT8=
EXTT9=
EXTT10=
EXTT11=
EXTT12=
EXTT13=
PLAYORDER=
